# xmcd CD database file
#
# Track frame offsets:
#	150
#	4730
#	35065
#	55695
#	84285
#	103649
#	129268
#	158457
#	184995
#	229608
#	263374
#	290919
#
# Disc length: 4082 seconds
#
# Revision: 0
# Processed by: cddbd v1.5.2PL0 Copyright (c) Steve Scherf et al.
# Submitted via: CDex 1.70beta2
#
DISCID=900ff00c
DTITLE=KJ Denhert - Dal Vivo A Umbria Jazz
DYEAR=2008
DGENRE=Jazz
TTITLE0=Enzo's Intro
TTITLE1=I Got Time 
TTITLE2=He's Not Coming Home
TTITLE3=Little Problems 
TTITLE4=All These Things
TTITLE5=August Clown 
TTITLE6=Violet 
TTITLE7=I Like Your Face
TTITLE8=Message In A Bottle
TTITLE9=Ticket To Ride
TTITLE10=Over The Rainbow
TTITLE11=KJ's Thanks
EXTD=YEAR: 2008
EXTT0=
EXTT1=
EXTT2=
EXTT3=
EXTT4=
EXTT5=
EXTT6=
EXTT7=
EXTT8=
EXTT9=
EXTT10=
EXTT11=
PLAYORDER=
